<svg xmlns="http://www.w3.org/2000/svg" viewBox="0 0 435.19 46.46"><defs><style>.cls-1{fill:#036a89;}.cls-2{fill:#0282a0;}.cls-3{fill:#0098b7;}.cls-4{fill:#00aecc;}.cls-5{fill:#16c0de;}.cls-6{fill:#67cbdd;}.cls-7{fill:#95d7e5;}.cls-8{fill:#c0e6ef;}</style></defs><g id="Layer_2" data-name="Layer 2"><g id="Layer_1-2" data-name="Layer 1"><polygon class="cls-1" points="12.88 42.48 11.28 46.46 0 46.46 1.59 42.48 12.88 42.48"/><polygon class="cls-2" points="15 37.17 13.41 41.15 2.12 41.15 3.72 37.17 15 37.17"/><polygon class="cls-3" points="45.53 35.84 4.25 35.84 5.84 31.86 43.94 31.86 45.53 35.84"/><polygon class="cls-4" points="43.41 30.53 6.37 30.53 7.96 26.55 41.81 26.55 43.41 30.53"/><polygon class="cls-5" points="21.37 21.24 19.78 25.22 8.5 25.22 10.09 21.24 21.37 21.24"/><polygon class="cls-6" points="23.5 15.93 21.9 19.91 10.62 19.91 12.21 15.93 23.5 15.93"/><polygon class="cls-7" points="37.03 14.6 25.75 14.6 24.89 12.41 24.03 14.6 12.74 14.6 14.34 10.62 35.44 10.62 37.03 14.6"/><polygon class="cls-7" points="34.91 9.29 14.87 9.29 16.46 5.31 33.32 5.31 34.91 9.29"/><polygon class="cls-8" points="32.79 3.98 16.99 3.98 18.58 0 31.19 0 32.79 3.98"/><polygon class="cls-6" points="39.16 19.91 27.88 19.91 26.28 15.93 37.57 15.93 39.16 19.91"/><polygon class="cls-5" points="41.28 25.22 30 25.22 28.41 21.24 39.69 21.24 41.28 25.22"/><polygon class="cls-2" points="47.66 41.15 36.37 41.15 34.78 37.17 46.06 37.17 47.66 41.15"/><polygon class="cls-1" points="49.78 46.46 38.49 46.46 36.9 42.48 48.19 42.48 49.78 46.46"/><rect class="cls-8" x="40.95" width="39.82" height="3.98"/><rect class="cls-7" x="40.95" y="5.31" width="39.82" height="3.98"/><rect class="cls-7" x="56.55" y="10.62" width="9.96" height="3.98"/><rect class="cls-6" x="56.55" y="15.93" width="9.96" height="3.98"/><rect class="cls-5" x="56.55" y="21.24" width="9.96" height="3.98"/><rect class="cls-4" x="56.55" y="26.55" width="9.96" height="3.98"/><rect class="cls-3" x="56.55" y="31.86" width="9.96" height="3.98"/><rect class="cls-2" x="56.55" y="37.17" width="9.96" height="3.98"/><rect class="cls-1" x="56.55" y="42.48" width="9.96" height="3.98"/><polygon class="cls-8" points="96.64 3.98 84.76 3.98 84.76 0 94.71 0 96.64 3.98"/><polygon class="cls-7" points="99.22 9.29 84.76 9.29 84.76 5.31 97.3 5.31 99.22 9.29"/><polygon class="cls-7" points="101.81 14.6 84.76 14.6 84.76 10.62 99.89 10.62 101.81 14.6"/><polygon class="cls-6" points="104.4 19.91 84.76 19.91 84.76 15.93 102.48 15.93 104.4 19.91"/><polygon class="cls-5" points="106.99 25.22 95.71 25.22 94.71 23.23 94.71 25.22 84.76 25.22 84.76 21.24 105 21.24 106.99 25.22"/><rect class="cls-4" x="84.76" y="26.55" width="9.96" height="3.98"/><rect class="cls-3" x="84.76" y="31.86" width="9.96" height="3.98"/><rect class="cls-2" x="84.76" y="37.17" width="9.96" height="3.98"/><rect class="cls-1" x="84.76" y="42.48" width="9.96" height="3.98"/><polygon class="cls-4" points="109.51 30.53 98.23 30.53 96.3 26.55 107.59 26.55 109.51 30.53"/><polygon class="cls-3" points="121.06 31.86 119.14 35.84 100.82 35.84 98.89 31.86 121.06 31.86"/><polygon class="cls-2" points="118.47 37.17 116.55 41.15 103.41 41.15 101.48 37.17 118.47 37.17"/><polygon class="cls-1" points="115.88 42.48 113.96 46.46 106 46.46 104.07 42.48 115.88 42.48"/><polygon class="cls-4" points="123.65 26.55 121.72 30.53 110.44 30.53 112.37 26.55 123.65 26.55"/><polygon class="cls-5" points="135.2 25.22 125.24 25.22 125.24 23.23 124.25 25.22 112.96 25.22 114.95 21.24 135.2 21.24 135.2 25.22"/><polygon class="cls-6" points="135.2 19.91 115.55 19.91 117.48 15.93 135.2 15.93 135.2 19.91"/><polygon class="cls-7" points="135.2 14.6 118.14 14.6 120.06 10.62 135.2 10.62 135.2 14.6"/><polygon class="cls-7" points="135.2 9.29 120.73 9.29 122.65 5.31 135.2 5.31 135.2 9.29"/><polygon class="cls-8" points="135.2 3.98 123.32 3.98 125.24 0 135.2 0 135.2 3.98"/><rect class="cls-4" x="125.24" y="26.55" width="9.96" height="3.98"/><rect class="cls-3" x="125.24" y="31.86" width="9.96" height="3.98"/><rect class="cls-2" x="125.24" y="37.17" width="9.96" height="3.98"/><rect class="cls-1" x="125.24" y="42.48" width="9.96" height="3.98"/><path class="cls-7" d="M179,9.29H139.18V6.64a6.66,6.66,0,0,1,.13-1.33h39.56A6.66,6.66,0,0,1,179,6.64Z"/><rect class="cls-7" x="139.18" y="10.62" width="9.96" height="3.98"/><rect class="cls-6" x="139.18" y="15.93" width="9.96" height="3.98"/><rect class="cls-5" x="139.18" y="21.24" width="9.96" height="3.98"/><rect class="cls-4" x="139.18" y="26.55" width="9.96" height="3.98"/><rect class="cls-3" x="139.18" y="31.86" width="9.96" height="3.98"/><path class="cls-2" d="M179,39.82a6.59,6.59,0,0,1-.13,1.33H139.31a6.59,6.59,0,0,1-.13-1.33V37.17H179Z"/><path class="cls-8" d="M178.47,4H139.71a6.16,6.16,0,0,1,6.11-4h26.55A6.15,6.15,0,0,1,178.47,4Z"/><path class="cls-1" d="M178.47,42.48a6.15,6.15,0,0,1-6.1,4H145.82a6.16,6.16,0,0,1-6.11-4Z"/><rect class="cls-7" x="169.05" y="10.62" width="9.96" height="3.98"/><rect class="cls-6" x="169.05" y="15.93" width="9.96" height="3.98"/><rect class="cls-5" x="169.05" y="21.24" width="9.96" height="3.98"/><rect class="cls-4" x="169.05" y="26.55" width="9.96" height="3.98"/><rect class="cls-3" x="169.05" y="31.86" width="9.96" height="3.98"/><path class="cls-7" d="M222.81,9.29H183V6.64a6.68,6.68,0,0,1,.14-1.33h39.69Z"/><rect class="cls-7" x="182.98" y="10.62" width="9.96" height="3.98"/><path class="cls-6" d="M222.28,19.91H183.12a6.6,6.6,0,0,1-.14-1.33V15.93h33.19A6.17,6.17,0,0,1,222.28,19.91Z"/><path class="cls-2" d="M222.81,39.82a6.6,6.6,0,0,1-.14,1.33H183v-4h39.83Z"/><path class="cls-1" d="M222.28,42.48a6.17,6.17,0,0,1-6.11,4H183v-4Z"/><path class="cls-8" d="M222.81,4h-39.3a6.17,6.17,0,0,1,6.11-4h33.19Z"/><path class="cls-5" d="M222.81,25.22H189.62a6.17,6.17,0,0,1-6.11-4h39.16a6.6,6.6,0,0,1,.14,1.33Z"/><rect class="cls-4" x="212.85" y="26.55" width="9.96" height="3.98"/><rect class="cls-3" x="212.85" y="31.86" width="9.96" height="3.98"/><path class="cls-8" d="M266.08,4H226.79V0H260A6.16,6.16,0,0,1,266.08,4Z"/><path class="cls-7" d="M266.61,9.29H226.79v-4h39.69a6.66,6.66,0,0,1,.13,1.33Z"/><rect class="cls-7" x="226.79" y="10.62" width="9.96" height="3.98"/><path class="cls-6" d="M266.61,18.58a6.59,6.59,0,0,1-.13,1.33H226.79v-4h39.82Z"/><path class="cls-5" d="M266.08,21.24a6.16,6.16,0,0,1-6.11,4H226.79v-4Z"/><rect class="cls-4" x="226.79" y="26.55" width="9.96" height="3.98"/><rect class="cls-3" x="226.79" y="31.86" width="9.96" height="3.98"/><rect class="cls-2" x="226.79" y="37.17" width="9.96" height="3.98"/><rect class="cls-1" x="226.79" y="42.48" width="9.96" height="3.98"/><rect class="cls-7" x="256.66" y="10.62" width="9.96" height="3.98"/><rect class="cls-8" x="270.59" width="9.96" height="3.98"/><rect class="cls-7" x="270.59" y="5.31" width="9.96" height="3.98"/><rect class="cls-7" x="270.59" y="10.62" width="9.96" height="3.98"/><rect class="cls-6" x="270.59" y="15.93" width="39.82" height="3.98"/><rect class="cls-5" x="270.59" y="21.24" width="39.82" height="3.98"/><rect class="cls-4" x="270.59" y="26.55" width="9.96" height="3.98"/><rect class="cls-3" x="270.59" y="31.86" width="9.96" height="3.98"/><rect class="cls-2" x="270.59" y="37.17" width="9.96" height="3.98"/><rect class="cls-1" x="270.59" y="42.48" width="9.96" height="3.98"/><rect class="cls-8" x="300.46" width="9.96" height="3.98"/><rect class="cls-7" x="300.46" y="5.31" width="9.96" height="3.98"/><rect class="cls-7" x="300.46" y="10.62" width="9.96" height="3.98"/><rect class="cls-4" x="300.46" y="26.55" width="9.96" height="3.98"/><rect class="cls-3" x="300.46" y="31.86" width="9.96" height="3.98"/><rect class="cls-2" x="300.46" y="37.17" width="9.96" height="3.98"/><rect class="cls-1" x="300.46" y="42.48" width="9.96" height="3.98"/><path class="cls-7" d="M350.9,9.29H314.4V6.64a6.66,6.66,0,0,1,.13-1.33H350.9Z"/><rect class="cls-7" x="314.4" y="10.62" width="9.96" height="3.98"/><rect class="cls-6" x="314.4" y="15.93" width="36.5" height="3.98"/><rect class="cls-5" x="314.4" y="21.24" width="36.5" height="3.98"/><rect class="cls-4" x="314.4" y="26.55" width="9.96" height="3.98"/><rect class="cls-3" x="314.4" y="31.86" width="9.96" height="3.98"/><path class="cls-2" d="M350.9,41.15H314.53a6.59,6.59,0,0,1-.13-1.33V37.17h36.5Z"/><path class="cls-8" d="M350.9,4h-36A6.15,6.15,0,0,1,321,0H350.9Z"/><path class="cls-1" d="M350.9,46.46H321a6.15,6.15,0,0,1-6.1-4h36Z"/><path class="cls-8" d="M394.17,4H354.88V0h33.19A6.15,6.15,0,0,1,394.17,4Z"/><path class="cls-7" d="M394.71,9.29H354.88v-4h39.69a6.68,6.68,0,0,1,.14,1.33Z"/><rect class="cls-7" x="354.88" y="10.62" width="9.96" height="3.98"/><path class="cls-6" d="M394.17,15.93a6.15,6.15,0,0,1-6.1,4H354.88v-4Z"/><path class="cls-5" d="M394.17,25.22H354.88v-4h33.19A6.15,6.15,0,0,1,394.17,25.22Z"/><rect class="cls-4" x="354.88" y="26.55" width="9.96" height="3.98"/><rect class="cls-3" x="354.88" y="31.86" width="9.96" height="3.98"/><rect class="cls-2" x="354.88" y="37.17" width="9.96" height="3.98"/><rect class="cls-1" x="354.88" y="42.48" width="9.96" height="3.98"/><path class="cls-7" d="M394.71,13.27a6.6,6.6,0,0,1-.14,1.33h-9.82v-4h10Z"/><path class="cls-4" d="M394.71,30.53h-10v-4h9.82a6.6,6.6,0,0,1,.14,1.33Z"/><rect class="cls-3" x="384.75" y="31.86" width="9.96" height="3.98"/><rect class="cls-2" x="384.75" y="37.17" width="9.96" height="3.98"/><rect class="cls-1" x="384.75" y="42.48" width="9.96" height="3.98"/><path class="cls-7" d="M435.19,9.29h-36.5V6.64a6.66,6.66,0,0,1,.13-1.33h36.37Z"/><rect class="cls-7" x="398.69" y="10.62" width="9.96" height="3.98"/><rect class="cls-6" x="398.69" y="15.93" width="36.5" height="3.98"/><rect class="cls-5" x="398.69" y="21.24" width="36.5" height="3.98"/><rect class="cls-4" x="398.69" y="26.55" width="9.96" height="3.98"/><rect class="cls-3" x="398.69" y="31.86" width="9.96" height="3.98"/><path class="cls-2" d="M435.19,41.15H398.82a6.59,6.59,0,0,1-.13-1.33V37.17h36.5Z"/><path class="cls-8" d="M435.19,4h-36a6.15,6.15,0,0,1,6.1-4h29.87Z"/><path class="cls-1" d="M435.19,46.46H405.32a6.15,6.15,0,0,1-6.1-4h36Z"/></g></g></svg>