<svg xmlns="http://www.w3.org/2000/svg" viewBox="0 0 990.69 118.6"><defs><style>.cls-1{fill:#276e91;}</style></defs><g id="Layer_2" data-name="Layer 2"><g id="Layer_1-2" data-name="Layer 1"><path class="cls-1" d="M987.42,10.68c-3,1.46-5.91,3-9.28,3.31-.63.06-1.26.18-1.89.28-2.23-.92-4.48-1.79-6.64-2.88A31.68,31.68,0,0,1,964,8l-3.41-2-.46-.32h-.56l-.46.3a9.87,9.87,0,0,1-2.35,1.55,1.24,1.24,0,0,1-.77.53c-2.43,1.69-4.92,3.53-8,3.24-2.64-.25-4.21,1-5.59,2.83-.74.94-1.31,1.1-2.32.46-1.55-1-3.19-1.85-4.76-2.81a1.17,1.17,0,0,0-1.4,0c-1.38.84-2.81,1.61-4.23,2.42a23.53,23.53,0,0,0-5.41-.76,38.87,38.87,0,0,0-5.91,0,8.49,8.49,0,0,1-5.7-1.76c-3.86-2.53-2.29-2.4-6.42-.45a6.07,6.07,0,0,0-1.14.57c-2.24,1.7-4.63,1.55-7.11.69-2.21-.77-4.45-1.17-6.7-.13-.19.3-.48.28-.77.26a.53.53,0,0,1-.52.22c-2.15,1-4.56,1-6.81,1.56-1.3.35-2.69.33-4,.61a11.53,11.53,0,0,1-6-.19c-2-.62-4.11-.5-6.09-1.17h-.51c-.63.15-1.2-.23-1.81-.24h-9.54c-5.81,1.81-11.63,2.42-17.5.27l-1.81-.29-.28-.2c-.51-.08-1.07.13-1.53-.26-.51-.08-1.09.16-1.54-.28h-.77l-.28-.2h-1a24.89,24.89,0,0,1-6.44-1.75h-.26a.53.53,0,0,1-.53-.22c-1.15,0-2-.92-3.1-1q-.1.2-.21,0l-.27,0A12,12,0,0,1,816.3,8h-.48a16.41,16.41,0,0,0-3.77-.23c-.44,0-1,.17-1.16-.48a13.9,13.9,0,0,1-1.53-3.12l-.25-.27a10.87,10.87,0,0,0-7.41,1.61c-1.86,1.24-4.14,1.82-5.7,3.56-1.29,1.31-2.58,2.62-3.86,4a1.63,1.63,0,0,1-1.3.41c-10.63,0-21.27.08-31.91-.06a35.14,35.14,0,0,1-8.21-1.3c-2.7-.7-5,0-7.4,1-1.49.66-3,1.22-4.53,1.83-1.78.73-3.56.12-5.32,0-2.72-.24-5.43-.64-8.14-1-.26,0-1-.26-1.23-.27s-2-.2-2.29-.19a30.25,30.25,0,0,1-5.17,1.5.34.34,0,0,1-.2,0c-.78.59-6.66,1.44-6.75,1.52-.8,1.1-2.58,0-2.58,0l-2.32-1.1-10.55-1.79c-2.66-.1-5.08,1-7.62,1.52a3.41,3.41,0,0,1-2-.06l-15-6a1.56,1.56,0,0,1-.4-.27.81.81,0,0,1-.77-.28,4.88,4.88,0,0,1-2.36-1l-.23-.24a1,1,0,0,1-.56-1c-.73-.27-1-1-1.29-1.54l-.2-.27-.23-.28A38.71,38.71,0,0,1,661.16,1a2.18,2.18,0,0,0-2.29-1c-.71,0-1,.56-1.44,1a12.48,12.48,0,0,1-6.32,4.06c-3.28.81-6.22,2.56-9.36,3.77-3.23,1.68-6.63,3-10,4.47a3.28,3.28,0,0,1-1.39.15h-21.1a3.24,3.24,0,0,1-2.16-.65c-.4-.32-.89-.53-1.27-.87a9.78,9.78,0,0,0-7.83-2.37,2.89,2.89,0,0,0-2.35,1,2.71,2.71,0,0,1-2.46,1c-5.66,0-11.32.06-17-.07A10.64,10.64,0,0,0,570.36,13a1.42,1.42,0,0,1-1.44.21c-3.78-1.72-7.78-1.83-11.83-1.67-1.07,0-2.15-.05-3.21,0-2.34.14-4.6,0-6.57-1.46a1.42,1.42,0,0,0-1.87.08c-1,.73-2.17,1.25-3.1,2.06a4.48,4.48,0,0,1-4.18.82A68.68,68.68,0,0,0,521,11.58a2.75,2.75,0,0,1-2.64-1,1.73,1.73,0,0,0-2.23-.59c-1.72.52-3.49.87-5.22,1.34a1.79,1.79,0,0,1-2.16-.65,1.86,1.86,0,0,0-2.48-.6c-.2.08-.43.07-.63.14-3.16,1-5-2.33-10.28-.83a18.82,18.82,0,0,1-3.3,1.33c-3,1.46-5.91,3-9.28,3.31-.63.06-1.26.18-1.89.28-2.23-.92-4.48-1.79-6.64-2.88A31.68,31.68,0,0,1,468.62,8l-3.41-2-.46-.32h-.56l-.46.3a9.87,9.87,0,0,1-2.35,1.55,1.24,1.24,0,0,1-.77.53c-2.43,1.69-4.92,3.53-8,3.24-2.64-.25-4.21,1-5.59,2.83-.74.94-1.31,1.1-2.32.46-1.55-1-3.19-1.85-4.76-2.81a1.17,1.17,0,0,0-1.4,0c-1.38.84-2.81,1.61-4.23,2.42a23.53,23.53,0,0,0-5.41-.76,38.87,38.87,0,0,0-5.91,0,8.49,8.49,0,0,1-5.7-1.76c-3.86-2.53-2.29-2.4-6.42-.45a6.07,6.07,0,0,0-1.14.57c-2.24,1.7-4.63,1.55-7.11.69-2.21-.77-4.45-1.17-6.7-.13-.19.3-.48.28-.77.26a.53.53,0,0,1-.52.22c-2.15,1-4.56,1-6.81,1.56-1.3.35-2.69.33-4,.61a11.53,11.53,0,0,1-6-.19c-2-.62-4.11-.5-6.09-1.17h-.51c-.63.15-1.2-.23-1.81-.24h-9.54c-5.81,1.81-11.63,2.42-17.5.27l-1.81-.29-.28-.2c-.51-.08-1.07.13-1.53-.26-.51-.08-1.09.16-1.54-.28h-.77l-.28-.2h-1a24.89,24.89,0,0,1-6.44-1.75h-.26a.53.53,0,0,1-.53-.22c-1.15,0-2-.92-3.1-1q-.1.2-.21,0l-.27,0A12,12,0,0,1,320.94,8h-.48a16.41,16.41,0,0,0-3.77-.23c-.44,0-1,.17-1.16-.48A13.9,13.9,0,0,1,314,4.21l-.25-.27a10.87,10.87,0,0,0-7.41,1.61c-1.86,1.24-4.14,1.82-5.7,3.56-1.29,1.31-2.58,2.62-3.86,4a1.63,1.63,0,0,1-1.3.41c-10.63,0-21.27.08-31.91-.06a35.14,35.14,0,0,1-8.21-1.3c-2.7-.7-5,0-7.4,1-1.49.66-3,1.22-4.53,1.83-1.78.73-3.56.12-5.32,0-2.72-.24-5.43-.64-8.14-1-.26,0-1-.26-1.23-.27s-2-.2-2.29-.19a30.25,30.25,0,0,1-5.17,1.5.34.34,0,0,1-.2,0c-.78.59-6.66,1.44-6.75,1.52-.8,1.1-2.58,0-2.58,0l-2.32-1.1-10.55-1.79c-2.66-.1-5.08,1-7.62,1.52a3.41,3.41,0,0,1-2-.06l-15-6a1.56,1.56,0,0,1-.4-.27.81.81,0,0,1-.77-.28,4.88,4.88,0,0,1-2.36-1l-.23-.24a1,1,0,0,1-.56-1c-.73-.27-1-1-1.29-1.54l-.2-.27-.23-.28A38.71,38.71,0,0,1,165.8,1a2.18,2.18,0,0,0-2.29-1c-.71,0-1,.56-1.44,1a12.48,12.48,0,0,1-6.32,4.06c-3.28.81-6.22,2.56-9.36,3.77-3.23,1.68-6.63,3-9.95,4.47a3.28,3.28,0,0,1-1.39.15H114a3.24,3.24,0,0,1-2.16-.65c-.4-.32-.89-.53-1.27-.87a9.78,9.78,0,0,0-7.83-2.37,2.89,2.89,0,0,0-2.35,1,2.71,2.71,0,0,1-2.46,1c-5.66,0-11.32.06-17-.07A10.64,10.64,0,0,0,75,13a1.42,1.42,0,0,1-1.44.21c-3.78-1.72-7.78-1.83-11.83-1.67-1.07,0-2.15-.05-3.21,0-2.34.14-4.6,0-6.57-1.46a1.42,1.42,0,0,0-1.87.08c-1,.73-2.17,1.25-3.1,2.06a4.48,4.48,0,0,1-4.18.82,68.68,68.68,0,0,0-17.16-1.5,2.75,2.75,0,0,1-2.64-1A1.73,1.73,0,0,0,20.77,10c-1.72.52-3.49.87-5.22,1.34a1.79,1.79,0,0,1-2.16-.65,1.86,1.86,0,0,0-2.48-.6c-.2.08-.43.07-.63.14-3.16,1-5-2.33-10.28-.83V118.6H990.69V9.35A18.53,18.53,0,0,1,987.42,10.68Z"/></g></g></svg>