<svg xmlns="http://www.w3.org/2000/svg" viewBox="0 0 990.72 109.87"><defs><style>.cls-1{fill:#283e54;}</style></defs><g id="Layer_2" data-name="Layer 2"><g id="Layer_1-2" data-name="Layer 1"><path class="cls-1" d="M987,4.22A6.79,6.79,0,0,1,984.66,3c-1.6-1.21-3.16-.9-4.82-.17C975.61,4.69,971.28,6.36,967,8a12.56,12.56,0,0,0-1.61.78,7,7,0,0,1-4.77.25q-7.41-1.42-14.79-3a16.76,16.76,0,0,0-4.47-.26c-2.22.12-4.43.35-6.64.48-3.28.2-6.57.34-9.85.55-3.62.22-7.24.54-10.86.72a5.17,5.17,0,0,1-4-1.77,5,5,0,0,1-2.6-1,38.35,38.35,0,0,1-4.64-2.39.58.58,0,0,1-.51-.26A11.84,11.84,0,0,1,899.32.75a5.26,5.26,0,0,0-3-.74c-.43,0-6.69.52-7.2.53-.17,0-14.79,1.7-18.2,3.37-2.44,1.2-5.07,2-7.59,3-4.36,1.83-8.81,3.47-13.1,5.49-2.51,1.18-5.11,2.15-7.67,3.25q-5.88,2.52-11.74,5.08a10.25,10.25,0,0,1-4,.56c-4.71.12-9.39.62-14.07.94-5.82.41-11.7.3-17.42,1.87a81,81,0,0,1-8.19,1.41c-1.82-.41-3.11-1.73-4.56-2.73A8,8,0,0,0,777.69,21c-6.29.12-12.59,0-18.89.08A56.56,56.56,0,0,1,747,20.05l-11.25-1.83c-1.85-.31-3.69-.65-5.55-.91a5.83,5.83,0,0,0-1.91.08c-5.82,1.13-11.62,2.35-17.44,3.43-4,.75-8,1.63-12,2.27-3.08.5-6.09,1.41-9.19,1.61-2.52.17-5-.68-7.44-1.07-2.73-.42-5.33-1.53-8.15-1.49-.33,0-13.87-2.66-18.23-3.59-1.26-.27-2.54-.54-3.79-.9a4.69,4.69,0,0,0-3.58.3c-1.47.9-23.1,4.68-24.53,3.79-.26-.17-13.79-11.45-15.47-12a2.1,2.1,0,0,0-1.61.18c-4.49,1.78-9,3.5-13.43,5.42a8.23,8.23,0,0,1-5.66.25,89.28,89.28,0,0,0-9.24-2,6.77,6.77,0,0,0-3.34.72,7.43,7.43,0,0,1-5.56,0c-3.41-1.19-6.8-2.43-10.22-3.59A6.42,6.42,0,0,0,556,11c-5.6,1.11-11.28,1.75-16.86,3-4.31,1-8.62.52-12.94,0-.07,0-.13-.1-.2-.15-2,.62-4.1.09-6.11-.12s-4.16-.44-6.24-.62c-6-.63-12.26-6.7-18.25-7.16h0c-1.51-.35-2.5-1.37-3.71-1.67A6.79,6.79,0,0,1,489.3,3c-1.6-1.21-3.16-.9-4.82-.17-4.23,1.87-8.56,3.54-12.89,5.16a12.56,12.56,0,0,0-1.61.78,7,7,0,0,1-4.77.25q-7.41-1.42-14.79-3A16.76,16.76,0,0,0,446,5.75c-2.22.12-4.43.35-6.64.48-3.28.2-6.57.34-9.85.55-3.62.22-7.24.54-10.86.72a5.17,5.17,0,0,1-4-1.77,5,5,0,0,1-2.6-1,38.35,38.35,0,0,1-4.64-2.39.58.58,0,0,1-.51-.26A11.84,11.84,0,0,1,404,.75,5.26,5.26,0,0,0,401,0c-.43,0-6.69.52-7.2.53-.17,0-14.79,1.7-18.2,3.37-2.44,1.2-5.07,2-7.59,3-4.36,1.83-8.81,3.47-13.1,5.49-2.51,1.18-5.11,2.15-7.67,3.25q-5.88,2.52-11.74,5.08a10.25,10.25,0,0,1-4,.56c-4.71.12-9.39.62-14.07.94-5.82.41-11.7.3-17.42,1.87a81,81,0,0,1-8.19,1.41c-1.82-.41-3.11-1.73-4.56-2.73A8,8,0,0,0,282.33,21c-6.29.12-12.59,0-18.89.08a56.56,56.56,0,0,1-11.83-1.07l-11.25-1.83c-1.85-.31-3.69-.65-5.55-.91a5.83,5.83,0,0,0-1.91.08c-5.82,1.13-11.62,2.35-17.44,3.43-4,.75-8,1.63-12,2.27-3.08.5-6.09,1.41-9.19,1.61-2.52.17-5-.68-7.44-1.07-2.73-.42-5.33-1.53-8.15-1.49-.33,0-13.87-2.66-18.23-3.59-1.26-.27-2.54-.54-3.79-.9a4.69,4.69,0,0,0-3.58.3c-1.47.9-23.1,4.68-24.53,3.79-.26-.17-13.79-11.45-15.47-12a2.1,2.1,0,0,0-1.61.18c-4.49,1.78-9,3.5-13.43,5.42a8.23,8.23,0,0,1-5.66.25,89.28,89.28,0,0,0-9.24-2,6.77,6.77,0,0,0-3.34.72,7.43,7.43,0,0,1-5.56,0c-3.41-1.19-6.8-2.43-10.22-3.59A6.42,6.42,0,0,0,60.6,11C55,12.06,49.32,12.7,43.74,14c-4.31,1-8.62.52-12.94,0-.07,0-.13-.1-.2-.15-2,.62-4.1.09-6.11-.12s-4.16-.44-6.24-.62C12.25,12.43,6,6.33,0,5.89c0,10.65,0,104,0,104H990.69s0-91.27,0-104C989.27,6.21,988.22,4.52,987,4.22Z"/></g></g></svg>