<svg xmlns="http://www.w3.org/2000/svg" viewBox="0 0 536.07 160.19"><defs><style>.cls-1{fill:#fbfbfb;}.cls-2{fill:#f7f7f7;}.cls-3{fill:#f8f8f8;}</style></defs><g id="Layer_2" data-name="Layer 2"><g id="Layer_1-2" data-name="Layer 1"><path class="cls-1" d="M160.51,80.28A80.26,80.26,0,1,1,81.21,0,80,80,0,0,1,160.51,80.28ZM68.6,57.17c6.05.42,12.12.69,18.15,1.32a106.34,106.34,0,0,1,29.9,7.21c4,1.67,7.86,3.8,11.84,5.59a7.39,7.39,0,0,0,7.38-12.75A24.19,24.19,0,0,0,133,56.8a94.9,94.9,0,0,0-18.29-7.67,156.07,156.07,0,0,0-64.89-5.62,168,168,0,0,0-19,3.92,9.23,9.23,0,0,0-4.42,2.93,6.83,6.83,0,0,0-.23,8.29c2,3,5,4.05,9,2.93A125.81,125.81,0,0,1,68.6,57.17ZM66.77,69.78c-6,.5-12.11.74-18.1,1.6a103.1,103.1,0,0,0-14,3.24c-3.55,1-5,4.17-4.08,7.71.73,2.81,3.59,4.56,6.94,4.19a14.45,14.45,0,0,0,2-.46c17.08-4.75,34.25-4.64,51.47-.92A92,92,0,0,1,117.8,95.39c3.69,2.14,6.9,1.51,8.88-1.53s1-6.74-2.46-9.06a33.79,33.79,0,0,0-2.93-1.69C104.27,74,86,70,66.77,69.78ZM64.5,96c-3.49.36-10.37.94-17.21,1.81A67.33,67.33,0,0,0,37,100c-2.66.78-3.6,2.91-3.08,5.7a4.56,4.56,0,0,0,4.89,3.74,15.33,15.33,0,0,0,2.93-.42c12.2-2.63,24.46-3.82,37-2.37a78.07,78.07,0,0,1,29.6,9.34,21.09,21.09,0,0,0,2.59,1.42,4.9,4.9,0,0,0,6.22-2.09,4.72,4.72,0,0,0-1.27-6.4,23,23,0,0,0-2.9-1.75C99,99.32,83.81,96.14,64.5,96Z"/><path class="cls-2" d="M516.17,61.44c-4.78,12.33-9.19,23.74-13.62,35.14q-4.28,11-8.6,22c-.67,1.7-1.44,3.37-2.25,5-3.63,7.36-9.5,10.87-17.77,10.37a24.73,24.73,0,0,1-12.53-4l4.79-10.34c2.49.69,4.61,1.41,6.79,1.84a6.09,6.09,0,0,0,6.28-2.62,4.19,4.19,0,0,0,.58-4.68C474.51,101.62,469.28,89,464,76.4c-.32-.77-.76-1.48-1.21-2.35h-11.3v42.89H437.28V74.07l-6.75-.4V61.43L437,61.1c.11-1.92.15-3.72.31-5.51.79-8.83,5.51-14.07,14.15-15.35a28.76,28.76,0,0,1,14.11,1.62V53.64c-1.17-.13-2.11-.2-3-.35s-1.92-.52-2.89-.63c-6.32-.74-8.73,1.82-7.83,8.67H473c4.83,12.52,9.58,24.82,14.72,38.12,4.65-13.17,9-25.44,13.41-38C506,61.23,510.71,61.29,516.17,61.44Z"/><path class="cls-3" d="M261.15,111.27V133.5a103.8,103.8,0,0,1-13.61.17c-.81-3.18-1-67.64-.19-72.13H261c.15,2.12.29,4,.44,6.11a5.72,5.72,0,0,0,1.18-.72c9.64-10.74,30.15-8.88,38.36,6.82,5.59,10.7,5.37,21.88-.7,32.42-6.91,12-24,16.94-36.33,7.25Zm29.4-22.57c-.67-2.29-1.11-5.29-2.37-7.89a13.91,13.91,0,0,0-23.79-2.27c-4.47,6-4.82,12.5-1.6,19.14a14.12,14.12,0,0,0,13.74,8.1,13.91,13.91,0,0,0,12.8-10.58C289.87,93.31,290.07,91.34,290.55,88.7Z"/><path class="cls-3" d="M184.55,105.68l8.42-10c2.45,1.78,4.43,3.36,6.55,4.74a27.78,27.78,0,0,0,17.67,4.7,20.12,20.12,0,0,0,6.07-1.56,6.81,6.81,0,0,0,4.29-6.27,6.35,6.35,0,0,0-3.91-6.46,45.26,45.26,0,0,0-7.1-2.68c-4.45-1.34-9-2.49-13.42-3.79a26.61,26.61,0,0,1-3.93-1.57c-7.05-3.37-11.36-8.62-11.63-16.74-.29-8.69,3-15.38,10.68-19.69,7.4-4.18,15.37-4.38,23.45-2.84a40.06,40.06,0,0,1,18.48,9c-2.25,3.69-4.88,7.08-7.58,10.84l-5.22-3.13c-5-3-10.26-4.82-16.09-4.2A14.64,14.64,0,0,0,205,58.15a6.44,6.44,0,0,0,.31,11.22,46.9,46.9,0,0,0,9,3.49c3.89,1.25,7.86,2.2,11.77,3.39A29.57,29.57,0,0,1,230.4,78c7.53,3.62,11.85,9.32,11.69,18s-4,15.14-11.71,19.16a29.85,29.85,0,0,1-13,3.21,45.35,45.35,0,0,1-30.62-10.26,15,15,0,0,1-1.26-1.13C185.27,106.79,185.14,106.53,184.55,105.68Z"/><path class="cls-3" d="M338.26,60.28c15.9-.17,29.93,11.78,29.8,29.23-.13,18.21-14.89,29.15-30.06,29.1-16.51,0-29.6-12.9-29.61-29.07C308.38,73.17,321.53,60.3,338.26,60.28Zm0,12.68a15.25,15.25,0,0,0-14.77,11.1c-2.23,7.5.52,15.58,6.59,19.43a15.36,15.36,0,0,0,23.24-9.69C355.31,85.41,350.63,73.32,338.23,73Z"/><path class="cls-2" d="M375.81,61.1V46.6l6.95,0h6.81c1.18,2.45.48,4.87.61,7.2s0,4.74,0,7.6h14.27V73.63c-4.48.56-9.1,0-13.94.33a13.85,13.85,0,0,0-.31,2c0,7.63.11,15.26-.06,22.89-.1,4.81,2.21,6.87,6.74,6.3,2.32-.29,4.59-1,7.19-1.61.91,3.75.22,7.49.43,11.44-7.18,4-14.43,4.71-21.81,1.07-3.8-1.88-5.72-5.39-6.45-9.46a38.11,38.11,0,0,1-.4-6.33c0-8.6,0-17.2,0-26.25H369.2c-.89-4.24-.27-8.11-.52-12.45Z"/><path class="cls-1" d="M410.92,61.51H423.8c.85,2.91,1.16,48,.36,55.39H410.87C410,113.56,410,64.85,410.92,61.51Z"/><path class="cls-3" d="M417.7,54.7c-5.83-.27-8.85-4.17-9.13-8.68-.31-4.87,4.09-9.28,9-9.26a9,9,0,0,1,.13,17.94Z"/><path class="cls-2" d="M536.07,68.47A8.11,8.11,0,1,1,528,60.58,7.93,7.93,0,0,1,536.07,68.47Zm-14.2,0a6.11,6.11,0,0,0,6.16,6.3,6,6,0,0,0,6-6.25,6.09,6.09,0,1,0-12.18,0Zm4.86,4.14H524.9v-7.9a16.53,16.53,0,0,1,3-.24,4.88,4.88,0,0,1,2.74.58,2.2,2.2,0,0,1,.77,1.73,2,2,0,0,1-1.64,1.83v.1a2.33,2.33,0,0,1,1.45,1.92,5.81,5.81,0,0,0,.58,2h-2a6.8,6.8,0,0,1-.62-1.93c-.15-.86-.63-1.25-1.64-1.25h-.87Zm0-4.48h.87c1,0,1.83-.34,1.83-1.15s-.53-1.21-1.69-1.21a4.21,4.21,0,0,0-1,.1Z"/></g></g></svg>