<svg xmlns="http://www.w3.org/2000/svg" viewBox="0 0 145.91 145.69"><defs><style>.cls-1{fill:#1a1f26;}</style></defs><g id="Layer_2" data-name="Layer 2"><g id="Layer_1-2" data-name="Layer 1"><path class="cls-1" d="M127.18,117.51l1.17-6.67c.27,0,.76-.06,1.25-.06,2.68,0,5.37,0,8.05,0,1,0,1.29-.33,1.26-1.28-.06-2,0-4,0-6v-69H6.81c0,.52-.07,1-.07,1.51q0,36.51,0,73c0,1.33.36,1.74,1.7,1.7,3.09-.1,6.18,0,9.14,0l1.13,6.64a7.75,7.75,0,0,1-.89.09c-3.93,0-7.87,0-11.8,0-3.71,0-6-2.3-6-6V6C0,2.3,2.27,0,6,0H139.59c4.19,0,6.32,2.15,6.32,6.34V111.17c0,4.16-2.15,6.32-6.33,6.34S131.26,117.51,127.18,117.51ZM88.64,16.89c0,3.05,2.16,4.83,5.17,5a5,5,0,0,0,5.07-4.84,5.12,5.12,0,0,0-10.24-.18Zm22-4.92a5,5,0,1,0,4.93,5.09A5,5,0,0,0,110.66,12Zm21.93,5a5,5,0,0,0-10-.07,5,5,0,0,0,4.89,5A5,5,0,0,0,132.59,17Z"/><path class="cls-1" d="M18.59,62.15V45.64c0-2.42.93-3.34,3.37-3.34h25.4c2.36,0,3.32.93,3.32,3.26q0,16.57,0,33.16c0,2.35-.92,3.25-3.3,3.25Q34.67,82,22,82c-2.52,0-3.38-.88-3.38-3.45Z"/><path class="cls-1" d="M105.21,112.16c-4.32-1.8-8.31-3.52-12.35-5.1-3.27-1.27-3.55-3.94-2.56-6.15.93-2.06,3.3-4.09,5.91-3.11,2,.74,3.94,1.58,5.89,2.42,5.05,2.16,10.09,4.37,15.15,6.52,2.37,1,4,2.51,4,5.27a5.77,5.77,0,0,1-3.92,5.64c-6.51,2.76-13,5.63-19.49,8.36a8.81,8.81,0,0,1-3.87.73c-2-.13-3.67-2.12-4-4.17a5.1,5.1,0,0,1,3.25-5.26c3.4-1.56,6.89-2.93,10.34-4.38Z"/><path class="cls-1" d="M40.68,112.15c.64.31,1,.51,1.44.68,3.5,1.47,7,2.9,10.49,4.4a5,5,0,0,1,2.19,7.66,4,4,0,0,1-4.56,1.81,20.65,20.65,0,0,1-3.12-1.1c-6.25-2.66-12.47-5.38-18.73-8a5.64,5.64,0,0,1-3.7-5.49c-.05-2.59,1.31-4.23,3.61-5.22C35,104,41.7,101.08,48.41,98.19c1.91-.82,3.79-1,5.42.58a5.26,5.26,0,0,1,1.72,5.52,4,4,0,0,1-2.49,2.76c-3.57,1.42-7.11,2.9-10.65,4.36C41.91,111.61,41.42,111.83,40.68,112.15Z"/><path class="cls-1" d="M86.48,86a11.07,11.07,0,0,1-.34,1.5q-9.36,27.45-18.73,54.89a4.14,4.14,0,0,1-2.62,3,3.86,3.86,0,0,1-4.25-.67,4,4,0,0,1-1-4.36c.65-2.07,1.4-4.12,2.1-6.17,1-3,2-6,3.09-9.06q7-20.1,14-40.18a4.06,4.06,0,0,1,6.24-2.22C86,83.37,86.47,84.18,86.48,86Z"/><path class="cls-1" d="M99.56,49H71.23a13,13,0,0,1-1.53,0,3.3,3.3,0,0,1-3-3.26,3.41,3.41,0,0,1,2.88-3.4,8.66,8.66,0,0,1,1.25,0q28.82,0,57.63,0a6.11,6.11,0,0,1,1.91.24A3.28,3.28,0,0,1,132.54,46,3.24,3.24,0,0,1,129.69,49a9.24,9.24,0,0,1-1.39.06Z"/><path class="cls-1" d="M99.61,76.21H70.72c-2.53,0-4-1.29-4-3.38s1.56-3.35,4.07-3.35h57.64a8.57,8.57,0,0,1,1.24,0,3.34,3.34,0,0,1,2.9,3.36,3.25,3.25,0,0,1-3,3.29c-.5,0-1,0-1.52,0Z"/><path class="cls-1" d="M90.86,62.63c-6.84,0-13.69,0-20.54,0-2.67,0-4.3-2.26-3.37-4.56a3.27,3.27,0,0,1,3.25-2.16c2.5,0,5,0,7.49,0h32.89a11.13,11.13,0,0,1,1.53,0A3.38,3.38,0,0,1,115,59.41,3.29,3.29,0,0,1,112,62.6c-.51,0-1,0-1.53,0Z"/><path class="cls-1" d="M126.27,62.6c-1,0-2,.06-3,0a3.34,3.34,0,0,1-.19-6.65,61.47,61.47,0,0,1,6.51,0,3.26,3.26,0,0,1,3,3.38,3.22,3.22,0,0,1-3.09,3.28C128.4,62.66,127.33,62.6,126.27,62.6Z"/></g></g></svg>