<svg id="Layer_1" data-name="Layer 1" xmlns="http://www.w3.org/2000/svg" viewBox="0 0 450.68 450.68"><defs><style>.cls-1{fill:#a7a9ac;}</style></defs><path class="cls-1" d="M534,482.82a24.43,24.43,0,0,1-7.36,16.95c-16.91,17-33.8,34.06-50.91,50.88-10.15,10-26.5,10.39-35.91-.17-7.07-7.92-12.82-8.46-22.51-4.41-9.9,4.14-14.67,8.21-13.92,19.81.89,13.78-11.11,25-25.09,25.22q-36.24.46-72.48,0c-14.41-.2-26-11.77-25.22-26.21.52-9.9-2.73-14.15-12-18-10.36-4.36-17.07-5.06-25.14,4.27-8.69,10-25.08,9.31-34.74-.13q-26.09-25.5-51.61-51.6c-9.73-9.93-10.07-26.36.35-35.52,8.24-7.25,8.53-13.15,4.32-22.94s-8.13-14.36-19.52-13.58c-13.76.95-25.14-11-25.34-25q-.51-36.24,0-72.48c.17-14.44,11.69-26.16,26.08-25.32,10.29.6,16.05-2.34,17.9-12.52.32-1.76,1.37-3.39,2.1-5.07,3.93-8.92,3.94-8.92-3.08-15.95-9.72-9.73-12.52-20.08-7.75-30.69a32.91,32.91,0,0,1,6.53-9.31c16-16.26,32.2-32.37,48.37-48.48,11.56-11.51,27-11.49,38.63,0,8.37,8.28,8.36,8.26,19.24,3.63,3.52-1.49,7.06-3,10.7-4.18,3.32-1.09,5-3,4.7-6.59-.2-2.81-.09-5.66,0-8.49.32-14.23,11-25.76,25.19-26q36.48-.56,73,0c14.17.21,25.82,11.78,24.94,25.92-.67,10.59,2.65,16.16,12.86,18.22a27,27,0,0,1,8.22,3.59c3.91,2.36,6.83,1.46,9.59-1.83a69.88,69.88,0,0,1,4.92-5c10.79-10.49,26.52-10.6,37.22,0q25,24.79,49.84,49.83c10.78,10.88,10.61,26.57-.18,37.57-8.63,8.8-7.76,8.53-4.14,20.09,3.48,11.15,8.5,16.24,21.26,15.44,13.09-.83,23.86,11.25,24.06,24.59.36,24.49.41,49,0,73.47-.25,13.94-11.85,25.37-25.76,24.57-10.43-.6-14.64,3.09-18.69,12.55-4.47,10.43-4.72,17.37,4.71,24.56C532.43,468.45,534,475.11,534,482.82Zm-77.09,35,36.95-36.94c-.24-.32-.8-1.14-1.44-1.89q-16.61-19.75-6.1-43.33c2.7-6.09,5.14-12.29,7.67-18.45,5.75-14,16.17-22,31-24.53,2.1-.35,4.23-.54,6.4-.82V340c-20.61-1.15-33.39-11.66-39.59-30.75-1.59-4.89-4-9.5-6-14.26-6.26-14.92-4.06-28.64,6-41.22.89-1.12,1.75-2.27,2.19-2.84L457,214.15c-.21.16-.92.59-1.54,1.12-13.21,11.37-27.75,13.47-43.7,6.45-6-2.62-12-5-18-7.47-14.38-5.81-22.67-16.42-25.08-31.68-.31-1.94-.48-3.9-.72-5.91H316c-1.07,17.5-8.64,30.26-24.74,37.19q-10.56,4.54-21.23,8.79c-14.66,5.84-28.07,3.44-40.31-6.31-1.11-.89-2.26-1.75-2.67-2.06l-36.84,36.8c-.11-.24,0,.09.17.35.39.54.83,1.05,1.25,1.56,10.92,13,13.09,27.25,6.28,42.86-2.66,6.11-5.15,12.29-7.66,18.46-6.07,15-17.27,23.22-33.18,25.28-1.45.19-2.9.3-4.59.48v51.76c1.18.18,2.13.38,3.09.48,17.28,1.67,29,10.52,35.26,26.78,2.38,6.22,5.05,12.33,7.68,18.45,3.41,7.93,4.74,16.27,2,24.39-2.35,6.95-6.32,13.36-9.52,19.89l36.1,36c-.25.11.08,0,.35-.17.53-.39,1-.82,1.55-1.25,12.82-10.78,26.94-13.07,42.4-6.43,3.21,1.39,6.29,3.19,9.61,4.19,20.61,6.19,34.19,18.31,34.94,41.41h52c.18-1.69.32-3.14.47-4.6a39.58,39.58,0,0,1,11.8-24.75c7-6.87,38.08-19.71,47.85-19.91C439.53,506,449.07,510.6,456.86,517.86Z" transform="translate(-116.67 -140.66)"/><path class="cls-1" d="M342.35,238.8c70.08.06,127,57.27,126.85,127.63-.09,69.6-57.59,126.85-127.31,126.77A127.28,127.28,0,0,1,214.8,365.32C215,295.75,272.45,238.75,342.35,238.8Zm91.45,127a91.82,91.82,0,0,0-92.21-91.59c-50.19.11-91.58,41.78-91.39,92a91.84,91.84,0,0,0,92.21,91.59C392.6,457.7,434,416,433.8,365.79Z" transform="translate(-116.67 -140.66)"/></svg>