<svg xmlns="http://www.w3.org/2000/svg" viewBox="0 0 102.67 152.84"><defs><style>.cls-1{fill:#1a1f26;}</style></defs><g id="Layer_2" data-name="Layer 2"><g id="Layer_1-2" data-name="Layer 1"><path class="cls-1" d="M51.29,90.28H94.65a7.79,7.79,0,0,1,8,7.69,36.11,36.11,0,0,1-.83,5.7q-2.25,13.13-4.52,26.24c-.57,3.34-1.16,6.67-1.73,10-.14.81-.18,1.64-.39,2.43a7.9,7.9,0,0,1-7.73,5.87c-4.61,0-9.23,0-13.84,0H15.79c-5,0-8.06-2.86-8.71-7.88-.52-4.08-1.35-8.13-2-12.18C3.46,119.07,1.87,110,.33,100.84a12.47,12.47,0,0,1-.24-4.07A7.81,7.81,0,0,1,8,90.28Zm.05,32.4a3.43,3.43,0,0,0,0-6.86,3.43,3.43,0,1,0,0,6.86Z"/><path class="cls-1" d="M4.94,87.23c0,.07,0-.09,0-.22a36.36,36.36,0,0,1,6.67-13.43A18.15,18.15,0,0,1,24.2,67.21c2.76-.3,5.53-.48,8.3-.73.48,0,1-.15,1.44-.23,1.44,3.3,3.76,6,6,8.63s4.57,5.24,7,8c.25-1,.46-1.68.65-2.42.46-1.81.93-3.61,1.35-5.42a1,1,0,0,0-.22-.85,5.76,5.76,0,0,1-1.53-4.51h8.17A5.41,5.41,0,0,1,54,74.07a1.08,1.08,0,0,0-.33,1.27c.66,2.44,1.28,4.89,2,7.57,4.7-5.39,9.7-10.33,13.21-16.7,4.18.52,8.55.91,12.87,1.64,4.48.77,7.77,3.54,10.41,7.12a37.4,37.4,0,0,1,5.55,12,3.34,3.34,0,0,1,0,.49c-3.5-.81-7-.41-10.49-.42q-38.08,0-76.16,0C9,87,7,87.15,4.94,87.23Z"/><path class="cls-1" d="M27.27,25.87c.45-9.57,4.79-16.64,13.21-21.39l.93,5.2c.35,2,.69,4,1.07,6a1.82,1.82,0,0,0,2.12,1.64A1.85,1.85,0,0,0,46,14.92C45.35,11,44.67,7,44,3a1.52,1.52,0,0,1,.45-1.48A4.71,4.71,0,0,1,47.82,0c2.32,0,4.65,0,7,0a5.62,5.62,0,0,1,2.26.59c1.57.78,1.8,1.44,1.49,3.15q-1,5.53-1.93,11.09a1.85,1.85,0,0,0,1.48,2.4c1,.16,1.88-.51,2.11-1.79.6-3.31,1.17-6.61,1.75-9.92,0-.3.13-.59.22-1a24.08,24.08,0,0,1,9.6,8.87,24.42,24.42,0,0,1,3.56,12.46l1.17.06a3.51,3.51,0,0,1-.08,7H26.74a3.51,3.51,0,0,1-.74-7C26.39,25.9,26.78,25.89,27.27,25.87Z"/><path class="cls-1" d="M76.38,37.36c-.19,3.06-.56,6.07-2.64,8.28a15.38,15.38,0,0,0-2.61,4.26c-2.52,5.29-5.76,10-10.58,13.49-6.2,4.46-12.86,4.48-19.07,0-4.89-3.48-8.16-8.27-10.7-13.61-.19-.38-.37-.77-.53-1.17-.38-1-.68-2-1.81-2.46a1.79,1.79,0,0,1-.57-.59,13.79,13.79,0,0,1-2.38-8.25Z"/><path class="cls-1" d="M51.29,149.54H90c1.58,0,2.38.55,2.38,1.64s-.79,1.66-2.36,1.66H12.26c-1.22,0-2-.69-2-1.69a1.74,1.74,0,0,1,2-1.61H51.29Z"/></g></g></svg>