<svg xmlns="http://www.w3.org/2000/svg" viewBox="0 0 162.73 162.74"><defs><style>.cls-1{fill:#1a1f26;}</style></defs><g id="Layer_2" data-name="Layer 2"><g id="Layer_1-2" data-name="Layer 1"><path class="cls-1" d="M0,75.68c.42-2.92.76-5.86,1.29-8.77A79.9,79.9,0,0,1,28.82,19.28,79.24,79.24,0,0,1,67.72,1.15a80.64,80.64,0,0,1,29.06.35,5.12,5.12,0,0,1,2.28,1,2.85,2.85,0,0,1,.76,3.59,3.23,3.23,0,0,1-3.66,1.86c-2.09-.31-4.18-.68-6.27-1a69.94,69.94,0,0,0-31.18,3C37.38,17,22,30.86,12.73,51.35A71.76,71.76,0,0,0,6.58,86.29,74.72,74.72,0,0,0,21.27,126.2c.28.38.58.74.95,1.2A13.61,13.61,0,0,1,34,127a13,13,0,0,1,6.48,6.07,13.38,13.38,0,1,1-23.27-.92c-2.86-4.74-5.88-9.22-8.38-14A77.06,77.06,0,0,1,.3,88.34,13.51,13.51,0,0,0,0,86.8Zm35.6,63.49a7,7,0,1,0-6.94,7A7.07,7.07,0,0,0,35.6,139.17Z"/><path class="cls-1" d="M75.64,162.74l-8.91-1.29c-.42-.06-.83-.16-1.24-.26-1.93-.48-3-2-2.69-3.67.38-1.9,2-2.86,4-2.6,4.3.53,8.6,1.34,12.91,1.37,24.61.17,44.8-9.34,60.33-28.43A71.38,71.38,0,0,0,156,88.77c1.82-19.57-3.29-37.27-15.14-53a3.45,3.45,0,0,0-.33-.36,13.6,13.6,0,0,1-12.55,0,13.06,13.06,0,0,1-6-6.33,13.37,13.37,0,0,1,20.63-15.88c3.94,3.17,7.24,10,2.74,17.83a81.17,81.17,0,0,1,11.17,19.09,80.4,80.4,0,0,1,6,38A81.21,81.21,0,0,1,98.17,161c-3.19.68-6.48.94-9.72,1.41-.46.06-.91.2-1.37.3ZM134.13,30.56a7,7,0,1,0-7-6.95A7.09,7.09,0,0,0,134.13,30.56Z"/><path class="cls-1" d="M106.82,125.22c-4.1,1.6-7.74,3-11.35,4.47a1.83,1.83,0,0,0-.94,1.29c-.12,1.64,0,3.28-.07,4.92a3.08,3.08,0,0,1-3.41,3.32q-9.69,0-19.39,0a3.08,3.08,0,0,1-3.4-3.32c-.06-1.64,0-3.29-.07-4.92a1.82,1.82,0,0,0-1-1.29c-3.61-1.49-7.25-2.88-11.34-4.48-.9,1-2.1,2.28-3.36,3.55-2,2-3.6,2-5.58.05q-6.52-6.5-13-13c-2-2-2-3.55,0-5.58,1.22-1.24,3.13-2.36,3.42-3.8s-1.28-3-1.91-4.52c-.84-2-1.63-4.13-2.3-6.24-.28-.87-.63-1.2-1.53-1.17-1.59.06-3.18,0-4.77,0a3.07,3.07,0,0,1-3.32-3.4q0-9.69,0-19.38a3.09,3.09,0,0,1,3.31-3.43c1.64-.07,3.29,0,4.92-.07a1.85,1.85,0,0,0,1.29-1c1.43-3.29,2.74-6.63,4.18-9.91.33-.75.37-1.2-.26-1.77-1.13-1-2.2-2.15-3.26-3.26-1.64-1.69-1.68-3.35-.05-5q6.78-6.82,13.6-13.59c1.66-1.64,3.31-1.61,5,0,1.15,1.1,2.21,2.29,3.41,3.33a1.67,1.67,0,0,0,1.45.21c3.43-1.35,6.85-2.75,10.23-4.21a1.75,1.75,0,0,0,.85-1.24c.1-1.64,0-3.28.06-4.92a3.06,3.06,0,0,1,3.41-3.31q9.69,0,19.39,0c2.16,0,3.32,1.14,3.4,3.32.06,1.58.05,3.17,0,4.76a1.33,1.33,0,0,0,1,1.49c3.34,1.29,6.66,2.67,9.94,4.11a1.29,1.29,0,0,0,1.77-.29c1.08-1.16,2.21-2.28,3.37-3.37a3.1,3.1,0,0,1,4.77,0q7,6.87,13.83,13.82c1.5,1.51,1.43,3.2-.06,4.78-1.09,1.15-2.21,2.29-3.37,3.36-.64.58-.57,1-.25,1.78,1.42,3.23,2.81,6.49,4.07,9.79.33.87.7,1.15,1.56,1.13,1.59,0,3.18-.06,4.77,0a3.07,3.07,0,0,1,3.29,3.44q0,9.69,0,19.38c0,2.15-1.16,3.31-3.33,3.39-1.53,0-3.07,0-4.61,0a1.46,1.46,0,0,0-1.69,1.17c-1.25,3.3-2.65,6.55-4.07,9.79-.33.74-.38,1.18.25,1.76,1.17,1.07,2.28,2.21,3.38,3.36,1.54,1.63,1.57,3.3,0,4.9q-6.81,6.89-13.7,13.7c-1.58,1.57-3.27,1.52-4.89-.07C109.16,127.75,107.88,126.34,106.82,125.22ZM74.81,30a2.4,2.4,0,0,0-.13.44c0,1.43,0,2.85,0,4.28,0,2.29-.76,3.33-3,3.86A46.69,46.69,0,0,0,57.86,44.3a3.23,3.23,0,0,1-4.56-.53c-1.15-1.16-2.2-2.42-3.11-3.43l-9.72,9.77c1,1,2.17,2,3.28,3.17,1.48,1.52,1.66,2.8.56,4.56a46.16,46.16,0,0,0-5.77,13.83c-.52,2.2-1.58,3-3.83,3H30V87.93a1.36,1.36,0,0,0,.37.13c1.38,0,2.75,0,4.13,0,2.61,0,3.58.7,4.16,3.18a44.38,44.38,0,0,0,5.56,13.4c1.26,2,1.13,3.25-.6,4.94-1.12,1.09-2.35,2.08-3.48,3.06L50,122.55c.5-.6,1-1.27,1.58-1.9s1.18-1.22,1.79-1.79c1.43-1.34,2.67-1.55,4.32-.52a46.94,46.94,0,0,0,14.12,5.87c2,.48,2.8,1.57,2.83,3.63,0,1.63,0,3.26,0,5H88.07c0-1.65,0-3.22,0-4.79,0-2.27.78-3.31,3-3.83a45.93,45.93,0,0,0,13.83-5.76c1.79-1.13,3-1,4.56.55,1.17,1.15,2.25,2.38,3.2,3.4l9.76-9.71c-1.09-1-2.32-2.11-3.47-3.27-1.43-1.45-1.62-2.74-.56-4.43a46.47,46.47,0,0,0,5.83-14c.52-2.14,1.53-2.88,3.73-2.89h4.81V74.68H128c-2.27,0-3.32-.8-3.85-3a46.32,46.32,0,0,0-5.75-13.84c-1.13-1.79-1-3.06.53-4.56,1.15-1.15,2.39-2.22,3.41-3.17l-9.72-9.76c-1,1-2,2.19-3.08,3.27-1.62,1.61-2.92,1.78-4.82.59a46.33,46.33,0,0,0-13.69-5.69c-2.2-.53-3-1.55-3-3.81,0-1.57,0-3.14,0-4.76Z"/><path class="cls-1" d="M110.57,5.74a3.06,3.06,0,0,1,3.21,3.14,3.15,3.15,0,0,1-3.19,3.21A3.24,3.24,0,0,1,107.44,9,3.11,3.11,0,0,1,110.57,5.74Z"/><path class="cls-1" d="M52.27,150.74A3.25,3.25,0,0,1,55.41,154a3.14,3.14,0,0,1-3.3,3.09A3.23,3.23,0,0,1,49,154,3.36,3.36,0,0,1,52.27,150.74Z"/><path class="cls-1" d="M81.4,107.71A26.32,26.32,0,1,1,107.68,81.4,26.47,26.47,0,0,1,81.4,107.71Zm19.81-26.35a19.85,19.85,0,1,0-19.86,19.88A19.81,19.81,0,0,0,101.21,81.36Z"/></g></g></svg>